PathFileType	4	(X/Y/Z)	D:\TRACE\v60_Jaco2_6-2-23\BothDRS_Motion2_6-v60.trc
DataRate	CameraRate	NumFrames	NumMarkers	Units	OrigDataRate	OrigDataStartFrame	OrigNumFrames
100.00	100.00	      24	9	mm	100.00	6563	      7500
Frame#	Time	front left toe			Front right toe			aft left toe			aft right toe			Arm			FL body			FR body			AL Body			AR Body			
		X1	Y1	Z1	X2	Y2	Z2	X3	Y3	Z3	X4	Y4	Z4	X5	Y5	Z5	X6	Y6	Z6	X7	Y7	Z7	X8	Y8	Z8	X9	Y9	Z9	

6563	65.620	-236.33502	20.86544	-294.45325	90.08157	51.93476	-326.46533	-223.58873	43.18527	324.59811	197.23944	15.71559	299.81607	-13.67033	1059.65991	-725.76929	-142.68407	564.01959	-431.75977	17.28481	564.40637	-443.32904	-76.41530	592.95551	511.18994	79.63408	587.78284	501.80664	
6564	65.630	-235.36696	21.57709	-294.19336	94.07315	63.92978	-326.97781	-224.44505	55.09903	321.74969	198.35045	14.81756	300.58698	-11.21332	1062.94141	-723.06763	-140.65656	565.22711	-430.85986	19.30534	565.51996	-442.55429	-75.23113	590.89233	512.18213	80.84977	585.73431	502.48959	
6565	65.640	-234.24234	22.45956	-293.86475	98.14938	76.73362	-328.34070	-226.19138	67.24717	319.65829	199.46028	13.93670	301.10513	-8.67444	1065.57849	-720.22070	-139.51262	566.52325	-430.44907	20.18766	566.90936	-441.48041	-74.57153	588.65692	513.13947	81.82590	583.59436	503.55536	
6566	65.650	-233.61313	23.34159	-293.45313	102.54934	89.38359	-329.26544	-226.75914	78.99891	318.05884	200.57504	13.31078	301.42960	-6.94605	1067.75732	-717.44775	-138.62614	568.18036	-429.98657	21.86411	568.49963	-440.85281	-73.40629	586.41040	513.87305	82.84027	581.52527	504.25024	
6567	65.660	-232.61604	24.00655	-293.33160	107.67316	101.41947	-329.45084	-226.46660	90.49249	317.67270	201.74669	12.75644	301.84601	-5.08939	1070.11975	-714.76404	-136.83601	569.29816	-429.04770	23.05274	569.74414	-439.89990	-72.41368	584.49628	514.55884	83.79365	579.50555	505.10007	
6568	65.670	-231.49805	24.52854	-293.05710	112.21936	112.99072	-329.51169	-224.13197	100.52206	317.18710	202.31120	11.85461	302.06006	-3.99504	1072.61108	-711.86597	-135.55963	570.46191	-428.52670	24.66186	571.12109	-439.34415	-71.55876	582.49805	515.39288	84.71666	577.51630	505.78864	
6569	65.680	-230.57544	25.43373	-292.78302	116.42230	124.01794	-328.94202	-221.34363	110.17826	316.86145	203.35374	11.34645	302.35834	-2.76072	1075.31201	-709.38977	-133.74182	571.71790	-427.32446	26.00310	572.27417	-438.64786	-70.39090	580.48535	516.19733	85.55894	575.57941	506.63617	
6570	65.690	-229.59186	26.08450	-292.44019	119.24892	134.24323	-328.35574	-218.83327	118.72300	317.22733	204.24086	10.90710	302.84253	-1.28195	1077.66248	-707.20959	-133.46909	573.26349	-426.94717	27.08915	573.47571	-438.00693	-69.03104	579.24127	517.09363	87.29031	574.26636	507.35107	
6571	65.700	-228.59546	26.78181	-292.15338	121.47652	143.36389	-327.24402	-218.01312	126.96035	316.90753	205.10767	9.97572	302.98074	0.42470	1079.80627	-704.86993	-132.57150	574.14435	-426.08878	28.11271	574.59576	-437.09311	-67.93891	577.63043	517.74469	88.47343	572.59717	508.31754	
6572	65.710	-227.95119	27.30721	-291.68771	123.24155	149.10104	-325.96262	-216.86096	132.03156	318.02698	205.95612	9.58186	303.40872	1.81216	1081.55164	-702.62909	-132.12596	575.17676	-425.29611	28.33067	575.57184	-436.65860	-66.66360	576.09717	518.77777	89.74167	571.16736	508.90393	
6573	65.720	-227.37279	28.04404	-291.30585	124.69434	152.77400	-324.34778	-215.65004	135.96654	319.47131	207.03130	8.59760	303.92490	3.46069	1083.29565	-700.53503	-131.26942	575.84674	-424.04678	29.24520	576.49213	-435.27670	-65.32751	574.87451	519.68317	91.40835	569.80664	510.01590	
6574	65.730	-226.59492	28.68734	-290.87250	126.09074	153.88533	-322.79279	-213.56543	137.13628	321.82452	207.56737	8.11884	303.98831	4.68037	1085.07422	-698.40082	-131.03070	576.75964	-423.10440	29.44395	577.21338	-434.68591	-63.75701	573.90112	520.69012	92.89305	568.76208	511.57349	
6575	65.740	-226.03119	29.66336	-290.35529	127.97194	153.17136	-320.99329	-211.87521	135.91119	324.21194	208.52486	7.22052	304.45428	5.62399	1086.73315	-696.28308	-130.50975	577.63696	-421.84113	28.99122	577.94183	-433.38956	-62.43662	573.02313	521.89813	94.31914	568.12152	511.50607	
6576	65.750	-225.30453	30.39907	-290.13596	129.70642	150.93530	-319.21271	-209.54665	132.99321	327.05002	209.29501	6.60894	304.72684	6.36530	1088.09460	-694.50793	-129.71809	578.39661	-420.66522	29.59170	578.65723	-432.41534	-60.97888	572.64825	522.89917	95.80222	567.45477	512.79529	
6577	65.760	-224.50748	30.98927	-289.56427	130.46150	147.07594	-317.77917	-207.70470	128.83292	330.11981	209.71609	6.08195	304.87158	7.17679	1089.27820	-692.90417	-129.93411	579.42896	-419.62274	29.63467	579.23553	-431.50034	-59.68252	572.09320	523.83173	97.47894	566.94818	513.35803	
6578	65.770	-224.18822	31.42969	-289.16638	130.96246	142.08850	-315.90778	-204.50298	123.09973	333.80396	210.46597	5.42506	305.08945	8.42892	1090.41772	-691.41602	-129.01428	579.88495	-417.95731	30.74074	580.11920	-430.69968	-58.26786	571.67847	524.92206	98.21571	566.20209	514.25775	
6579	65.780	-223.52293	32.12857	-288.58298	130.90782	136.09053	-313.86246	-203.01308	117.80946	337.01978	211.39085	4.99694	305.37671	9.09921	1091.24658	-689.84436	-129.04977	580.72247	-417.23077	30.78123	580.69122	-430.10172	-56.91206	570.68555	526.19049	99.53530	565.52795	515.20825	
6580	65.790	-222.93629	32.42500	-288.18958	131.23689	129.27412	-311.81607	-201.34499	112.44588	340.21149	211.83000	4.31060	305.58047	9.81489	1092.13611	-688.21069	-128.51721	581.15472	-415.80139	30.42402	581.04395	-428.27710	-55.53561	570.55310	527.14923	100.53033	564.72711	516.20020	
6581	65.800	-222.21887	33.24550	-287.75433	132.37512	121.25726	-309.30847	-199.24672	106.32669	343.60254	211.95035	3.66684	305.67880	10.56696	1093.08618	-686.65887	-129.06445	582.23602	-414.81201	30.45603	581.49640	-427.48511	-54.52918	569.81610	528.32135	101.72115	563.93066	517.20526	
6582	65.810	-221.79266	33.84337	-287.22333	133.63676	112.36840	-307.01212	-197.72603	100.00003	346.70410	212.76277	3.21856	305.86035	11.72996	1094.14258	-685.01056	-129.26085	582.72089	-413.61322	31.29221	582.28632	-426.65591	-53.06415	569.11713	529.63330	103.52307	563.89911	518.74774	
6583	65.820	-221.44406	34.05294	-286.92935	134.92773	102.80949	-304.44766	-195.75098	92.53570	349.79932	213.70607	2.86586	306.18173	13.02765	1095.05908	-683.45221	-129.04929	583.11725	-412.38010	31.60019	582.58997	-425.64417	-52.18457	568.61316	530.34045	104.68137	562.81372	519.21387	
6584	65.830	-221.02782	34.85056	-286.51837	135.40903	92.43424	-302.08197	-193.82611	84.29180	352.71573	214.22563	1.96817	306.24353	14.05498	1095.72375	-681.78888	-129.05151	583.40399	-411.07828	30.63592	582.63098	-424.27234	-51.19417	567.86072	531.67914	106.09655	562.11658	520.84235	
6585	65.840	-220.59224	35.38379	-286.16577	135.78069	82.88024	-299.84586	-192.01671	75.88583	355.57440	214.74202	1.61588	306.63998	15.14401	1096.30701	-680.03821	-128.88948	583.93964	-409.63251	31.33981	582.94171	-423.39587	-50.14261	567.19342	532.77826	106.98347	561.05939	521.38843	
6586	65.850	-220.33727	35.86624	-285.77145	135.86343	73.91170	-297.90967	-189.86763	66.87550	358.38470	215.06346	0.95154	306.87732	16.19661	1096.76550	-678.54016	-128.68793	584.29669	-408.40897	31.69257	583.42828	-422.36768	-49.07060	566.42352	534.06732	108.60265	560.47778	523.12897	
